<svg width="16" height="16" viewBox="0 0 16 16" fill="none" xmlns="http://www.w3.org/2000/svg">
<g clip-path="url(#clip0_881_8)">
<path d="M15.5011 1.49883V14.5011H2.49886V1.49883H15.5011ZM2.94722 14.0527L9 13.9033L15.0528 14.0527V1.94718H2.94722V14.0527Z" fill="white"/>
<path d="M14.455 2.54499V13.2486L9 12.7833L3.54502 13.2486V2.54499H14.455ZM3.84393 12.9141L9 12.3331L14.1561 12.9141V2.84389H3.84393V12.9141Z" fill="white"/>
<path d="M13.3715 3.62851V12.0361L9 10.8817L4.62855 12.0361V3.62851H13.3715ZM4.85272 11.7352L9 10.4659L13.1473 11.7352V3.85268H4.85272V11.7352Z" fill="white"/>
<path d="M12.2132 4.78676V10.6721L9 8.90886L5.78679 10.6721V4.78676H12.2132ZM5.93625 10.4091L9 8.58551L12.0638 10.4091V4.93621H5.93625V10.4091Z" fill="white"/>
<path d="M10.9055 6.09446V9.05532L9 7.41507L7.09449 9.05532V6.09446H10.9055ZM7.16922 8.8874L9 7.23979L10.8308 8.8874V6.16918H7.16922V8.8874Z" fill="white"/>
</g>
<defs>
<clipPath id="clip0_881_8">
<rect width="16" height="16" fill="white"/>
</clipPath>
</defs>
</svg>
